name C:\Users\u0101727\Documents\MyRepositories\upper-imu-dc\Results\main_tracking\Case_31\FLX01_linearAccelerations_bodyFrame.mot
datacolumns 4
datarows 129
range 2.01000000 3.29000000
endheader 
time	radius_imu_x	radius_imu_y	radius_imu_z	
          2.01000000	         -3.42510094	         -3.69927365	          7.25196360	
          2.02000000	         -3.12675320	         -3.76355275	          7.24684565	
          2.03000000	         -2.96817873	         -3.84596892	          7.20844459	
          2.04000000	         -2.96616699	         -3.95383542	          7.13675546	
          2.05000000	         -3.09974611	         -4.08546139	          7.04119837	
          2.06000000	         -3.31638992	         -4.23096542	          6.93701520	
          2.07000000	         -3.55294162	         -4.37665087	          6.83917043	
          2.08000000	         -3.76159705	         -4.51072372	          6.75692242	
          2.09000000	         -3.92855757	         -4.62739825	          6.69117288	
          2.10000000	         -4.07281998	         -4.72712078	          6.63595064	
          2.11000000	         -4.22025602	         -4.81380858	          6.58373878	
          2.12000000	         -4.37146644	         -4.89161341	          6.53137791	
          2.13000000	         -4.49187957	         -4.96348732	          6.48217527	
          2.14000000	         -4.52997618	         -5.03197933	          6.44358415	
          2.15000000	         -4.44677475	         -5.10088406	          6.42282202	
          2.16000000	         -4.24060470	         -5.17599043	          6.42200799	
          2.17000000	         -3.95854863	         -5.26409054	          6.43389031	
          2.18000000	         -3.68686395	         -5.37055449	          6.44103227	
          2.19000000	         -3.51847756	         -5.49657109	          6.42146536	
          2.20000000	         -3.51501946	         -5.63759771	          6.35856584	
          2.21000000	         -3.68917118	         -5.78423913	          6.24814846	
          2.22000000	         -4.01237861	         -5.92522023	          6.09840404	
          2.23000000	         -4.43381686	         -6.05110755	          5.92460106	
          2.24000000	         -4.89779151	         -6.15720176	          5.74268821	
          2.25000000	         -5.35416914	         -6.24435006	          5.56463387	
          2.26000000	         -5.76301287	         -6.31760880	          5.39667221	
          2.27000000	         -6.09529270	         -6.38352236	          5.23967283	
          2.28000000	         -6.33159314	         -6.44752022	          5.09067030	
          2.29000000	         -6.45993936	         -6.51251017	          4.94490384	
          2.30000000	         -6.47274694	         -6.57862803	          4.79809691	
          2.31000000	         -6.36323048	         -6.64345621	          4.64863814	
          2.32000000	         -6.12316469	         -6.70240838	          4.49903785	
          2.33000000	         -5.74426847	         -6.74969388	          4.35598466	
          2.34000000	         -5.22441879	         -6.78035564	          4.22853941	
          2.35000000	         -4.57784324	         -6.79314275	          4.12455272	
          2.36000000	         -3.84556719	         -6.79294870	          4.04626145	
          2.37000000	         -3.10002693	         -6.79109207	          3.98693500	
          2.38000000	         -2.43574871	         -6.80251784	          3.93146038	
          2.39000000	         -1.94204929	         -6.84076787	          3.86295002	
          2.40000000	         -1.67122082	         -6.91322953	          3.77225395	
          2.41000000	         -1.62509341	         -7.01919470	          3.66325155	
          2.42000000	         -1.76458500	         -7.15128098	          3.55075102	
          2.43000000	         -2.02843850	         -7.29868289	          3.45400939	
          2.44000000	         -2.35037220	         -7.45022810	          3.39014063	
          2.45000000	         -2.67201195	         -7.59606278	          3.36985008	
          2.46000000	         -2.95064642	         -7.72794792	          3.39616377	
          2.47000000	         -3.16105492	         -7.83891033	          3.46551520	
          2.48000000	         -3.29304393	         -7.92324050	          3.56982731	
          2.49000000	         -3.34800459	         -7.97760265	          3.69840163	
          2.50000000	         -3.33623475	         -8.00296388	          3.83923305	
          2.51000000	         -3.27443799	         -8.00571401	          3.98000685	
          2.52000000	         -3.18261219	         -7.99646302	          4.10907460	
          2.53000000	         -3.08051881	         -7.98687360	          4.21642257	
          2.54000000	         -2.98439883	         -7.98640353	          4.29444787	
          2.55000000	         -2.90460846	         -8.00059206	          4.33838659	
          2.56000000	         -2.84479138	         -8.03138712	          4.34638723	
          2.57000000	         -2.80270395	         -8.07880192	          4.31927404	
          2.58000000	         -2.77229920	         -8.14226410	          4.26028175	
          2.59000000	         -2.74615095	         -8.22045501	          4.17481775	
          2.60000000	         -2.71771256	         -8.30966129	          4.07016254	
          2.61000000	         -2.68315231	         -8.40235437	          3.95470477	
          2.62000000	         -2.64164912	         -8.48774238	          3.83672981	
          2.63000000	         -2.59509380	         -8.55463194	          3.72298808	
          2.64000000	         -2.54552474	         -8.59486267	          3.61789991	
          2.65000000	         -2.49468468	         -8.60594317	          3.52332758	
          2.66000000	         -2.44309134	         -8.59187583	          3.43906632	
          2.67000000	         -2.38994646	         -8.56232892	          3.36329412	
          2.68000000	         -2.33427297	         -8.53049166	          3.29317269	
          2.69000000	         -2.27682298	         -8.51006031	          3.22533800	
          2.70000000	         -2.22145334	         -8.51207370	          3.15649572	
          2.71000000	         -2.17444118	         -8.54237431	          3.08402256	
          2.72000000	         -2.14182592	         -8.60024565	          3.00644784	
          2.73000000	         -2.12644117	         -8.67867667	          2.92372843	
          2.74000000	         -2.12657855	         -8.76647478	          2.83724268	
          2.75000000	         -2.13690075	         -8.85174259	          2.74946053	
          2.76000000	         -2.15048631	         -8.92544164	          2.66334277	
          2.77000000	         -2.16039943	         -8.98345350	          2.58169808	
          2.78000000	         -2.16016878	         -9.02609386	          2.50683217	
          2.79000000	         -2.14388257	         -9.05555101	          2.44058012	
          2.80000000	         -2.10687217	         -9.07324169	          2.38443474	
          2.81000000	         -2.04711354	         -9.07907262	          2.33940262	
          2.82000000	         -1.96654475	         -9.07291880	          2.30548647	
          2.83000000	         -1.87106751	         -9.05675842	          2.28110831	
          2.84000000	         -1.76854842	         -9.03539273	          2.26299245	
          2.85000000	         -1.66560152	         -9.01496358	          2.24674179	
          2.86000000	         -1.56509661	         -9.00045975	          2.22782105	
          2.87000000	         -1.46607159	         -8.99417374	          2.20240887	
          2.88000000	         -1.36591595	         -8.99594853	          2.16780113	
          2.89000000	         -1.26287983	         -9.00445848	          2.12248092	
          2.90000000	         -1.15710603	         -9.01835465	          2.06611249	
          2.91000000	         -1.04995283	         -9.03681510	          1.99947654	
          2.92000000	         -0.94259396	         -9.05979321	          1.92420039	
          2.93000000	         -0.83510962	         -9.08830274	          1.84227582	
          2.94000000	         -0.72654368	         -9.12456771	          1.75556180	
          2.95000000	         -0.61560203	         -9.17154045	          1.66560424	
          2.96000000	         -0.50122431	         -9.23146763	          1.57393132	
          2.97000000	         -0.38310525	         -9.30389975	          1.48272416	
          2.98000000	         -0.26224473	         -9.38429550	          1.39535892	
          2.99000000	         -0.14135976	         -9.46435364	          1.31633921	
          3.00000000	         -0.02465604	         -9.53427637	          1.25052451	
          3.01000000	          0.08305523	         -9.58600476	          1.20196692	
          3.02000000	          0.17728770	         -9.61588943	          1.17284303	
          3.03000000	          0.25426431	         -9.62558838	          1.16296799	
          3.04000000	          0.31063909	         -9.62088730	          1.17012738	
          3.05000000	          0.34285516	         -9.60903922	          1.19098151	
          3.06000000	          0.34677147	         -9.59580279	          1.22198956	
          3.07000000	          0.31844642	         -9.58355194	          1.25988816	
          3.08000000	          0.25637875	         -9.57141561	          1.30165846	
          3.09000000	          0.16420077	         -9.55723142	          1.34436261	
          3.10000000	          0.05223010	         -9.53989753	          1.38525239	
          3.11000000	         -0.06327040	         -9.52064407	          1.42214798	
          3.12000000	         -0.16339312	         -9.50278648	          1.45377657	
          3.13000000	         -0.23166443	         -9.49049877	          1.47977744	
          3.14000000	         -0.25909877	         -9.48733672	          1.50033931	
          3.15000000	         -0.24658349	         -9.49495870	          1.51583079	
          3.16000000	         -0.20118487	         -9.51222854	          1.52728285	
          3.17000000	         -0.12578403	         -9.53500213	          1.53825365	
          3.18000000	         -0.01003390	         -9.55696514	          1.55648677	
          3.19000000	          0.16610538	         -9.57174162	          1.59249193	
          3.20000000	          0.41499726	         -9.57548829	          1.65457269	
          3.21000000	          0.72159366	         -9.56870428	          1.74297514	
          3.22000000	          1.03512500	         -9.55643115	          1.84655726	
          3.23000000	          1.28067169	         -9.54630616	          1.94509098	
          3.24000000	          1.38903546	         -9.54482002	          2.01792006	
          3.25000000	          1.32755342	         -9.55367444	          2.05412970	
          3.26000000	          1.11049032	         -9.56871952	          2.05676485	
          3.27000000	          0.78650006	         -9.58214289	          2.03902708	
          3.28000000	          0.41759620	         -9.58640159	          2.01679847	
          3.29000000	          0.06203979	         -9.57771739	          2.00246025	
